<svg width="22" height="22" viewBox="0 0 24 24" fill="none" xmlns="http://www.w3.org/2000/svg">
<path d="M3.5 2l1.7 19.1 6.8 1.9 6.8-1.9L20.5 2h-17zm13.1 5.7l-.2 2.1H7.6l.1 1.5h8.2l-.2 2.1H8.2l.1 1.5h7.2l-.3 2.7-4.2 1.2v.1h-.1l-4.2-1.2-.3-3.2h2.1l.1 1.2 2.3.6 2.3-.6.1-1.2h2.1l-.3 3.2-4.2 1.2v.1h-.1l-4.2-1.2-.3-3.2h2.1l.1 1.2 2.3.6 2.3-.6.1-1.2h2.1l-.3 3.2-4.2 1.2v.1h-.1l-4.2-1.2-.3-3.2h2.1l.1 1.2 2.3.6 2.3-.6.1-1.2h2.1l-.3 3.2-4.2 1.2v.1h-.1l-4.2-1.2-.3-3.2h2.1l.1 1.2 2.3.6 2.3-.6.1-1.2h2.1l-.3 3.2-4.2 1.2v.1h-.1l-4.2-1.2-.3-3.2h2.1l.1 1.2 2.3.6 2.3-.6.1-1.2h2.1l-.3 3.2-4.2 1.2v.1h-.1l-4.2-1.2-.3-3.2h2.1l.1 1.2 2.3.6 2.3-.6.1-1.2h2.1l-.3 3.2-4.2 1.2v.1h-.1l-4.2-1.2-.3-3.2h2.1l.1 1.2 2.3.6 2.3-.6.1-1.2h2.1z" fill="#e44d26"/>
</svg>