<svg width="32" height="32" viewBox="0 0 32 32" fill="none" xmlns="http://www.w3.org/2000/svg">
  <!-- Python Logo -->
  <rect width="32" height="32" rx="6" fill="#3776AB"/>
  <rect x="2" y="2" width="28" height="28" rx="4" fill="#FFD43B"/>
  <path d="M8 8h4c1.1 0 2 .9 2 2v2H8V8zm2 2v2h2v-2h-2z" fill="#3776AB"/>
  <path d="M20 8h4v4h-6V8zm2 2v2h2v-2h-2z" fill="#3776AB"/>
  <path d="M8 20h6v4H8v-4zm2 2v2h2v-2h-2z" fill="#3776AB"/>
  <path d="M20 20h4v4h-4v-4zm2 2v2h2v-2h-2z" fill="#3776AB"/>
  <path d="M12 12h8v8h-8v-8zm2 2v4h4v-4h-4z" fill="#3776AB"/>
</svg> 